<?xml version="1.0" encoding="UTF-8" standalone="no"?>
<!DOCTYPE svg PUBLIC "-//W3C//DTD SVG 1.1//EN"
 "http://www.w3.org/Graphics/SVG/1.1/DTD/svg11.dtd">
<!-- Generated by graphviz version 2.47.0 (20210316.0004)
 -->
<!-- Title: dependencies Pages: 1 -->
<svg width="522pt" height="211pt"
 viewBox="0.00 0.00 522.00 211.00" xmlns="http://www.w3.org/2000/svg" xmlns:xlink="http://www.w3.org/1999/xlink">
<g id="graph0" class="graph" transform="scale(1 1) rotate(0) translate(4 207)">
<title>dependencies</title>
<polygon fill="white" stroke="transparent" points="-4,4 -4,-207 518,-207 518,4 -4,4"/>
<text text-anchor="start" x="236.01" y="-42.4" font-family="Times-12" font-weight="bold" font-size="14.00">Legend</text>
<polygon fill="#ffffb3" stroke="transparent" points="23,-10 23,-30 43,-30 43,-10 23,-10"/>
<text text-anchor="start" x="46.63" y="-15.4" font-family="Times-12" font-size="14.00"> &#160;Declarations</text>
<polygon fill="#8dd3c7" stroke="transparent" points="136,-10 136,-30 156,-30 156,-10 136,-10"/>
<text text-anchor="start" x="159.73" y="-15.4" font-family="Times-12" font-size="14.00"> &#160;Module</text>
<polygon fill="#80b1d3" stroke="transparent" points="222,-10 222,-30 242,-30 242,-10 222,-10"/>
<text text-anchor="start" x="245.78" y="-15.4" font-family="Times-12" font-size="14.00"> &#160;Bootstrap</text>
<polygon fill="#fdb462" stroke="transparent" points="319,-10 319,-30 339,-30 339,-10 319,-10"/>
<text text-anchor="start" x="342.67" y="-15.4" font-family="Times-12" font-size="14.00"> &#160;Providers</text>
<polygon fill="#fb8072" stroke="transparent" points="415,-10 415,-30 435,-30 435,-10 415,-10"/>
<text text-anchor="start" x="438.73" y="-15.4" font-family="Times-12" font-size="14.00"> &#160;Exports</text>
<g id="clust1" class="cluster">
<title>cluster_WishlistModule</title>
<polygon fill="none" stroke="black" stroke-dasharray="1,5" points="8,-70 8,-195 506,-195 506,-70 8,-70"/>
</g>
<g id="clust3" class="cluster">
<title>cluster_WishlistModule_imports</title>
<polygon fill="none" stroke="black" points="384,-78 384,-130 498,-130 498,-78 384,-78"/>
</g>
<g id="clust6" class="cluster">
<title>cluster_WishlistModule_providers</title>
<polygon fill="none" stroke="black" points="16,-78 16,-130 376,-130 376,-78 16,-78"/>
</g>
<!-- HelperModule -->
<g id="node1" class="node">
<title>HelperModule</title>
<polygon fill="#8dd3c7" stroke="black" points="489.64,-122 486.64,-126 465.64,-126 462.64,-122 392.36,-122 392.36,-86 489.64,-86 489.64,-122"/>
<text text-anchor="middle" x="441" y="-99.8" font-family="Times,serif" font-size="14.00">HelperModule</text>
</g>
<!-- WishlistModule -->
<g id="node2" class="node">
<title>WishlistModule</title>
<polygon fill="#8dd3c7" stroke="black" points="330.22,-187 327.22,-191 306.22,-191 303.22,-187 223.78,-187 223.78,-151 330.22,-151 330.22,-187"/>
<text text-anchor="middle" x="277" y="-164.8" font-family="Times,serif" font-size="14.00">WishlistModule</text>
</g>
<!-- HelperModule&#45;&gt;WishlistModule -->
<g id="edge1" class="edge">
<title>HelperModule&#45;&gt;WishlistModule</title>
<path fill="none" stroke="black" d="M441,-122.11C441,-141.34 441,-169 441,-169 441,-169 340.25,-169 340.25,-169"/>
<polygon fill="black" stroke="black" points="340.25,-165.5 330.25,-169 340.25,-172.5 340.25,-165.5"/>
</g>
<!-- WishlistItemMapper -->
<g id="node3" class="node">
<title>WishlistItemMapper</title>
<ellipse fill="#fdb462" stroke="black" cx="277" cy="-104" rx="90.91" ry="18"/>
<text text-anchor="middle" x="277" y="-99.8" font-family="Times,serif" font-size="14.00">WishlistItemMapper</text>
</g>
<!-- WishlistItemMapper&#45;&gt;WishlistModule -->
<g id="edge2" class="edge">
<title>WishlistItemMapper&#45;&gt;WishlistModule</title>
<path fill="none" stroke="black" d="M277,-122.11C277,-122.11 277,-140.99 277,-140.99"/>
<polygon fill="black" stroke="black" points="273.5,-140.99 277,-150.99 280.5,-140.99 273.5,-140.99"/>
</g>
<!-- WishlistService -->
<g id="node4" class="node">
<title>WishlistService</title>
<ellipse fill="#fdb462" stroke="black" cx="96" cy="-104" rx="72.36" ry="18"/>
<text text-anchor="middle" x="96" y="-99.8" font-family="Times,serif" font-size="14.00">WishlistService</text>
</g>
<!-- WishlistService&#45;&gt;WishlistModule -->
<g id="edge3" class="edge">
<title>WishlistService&#45;&gt;WishlistModule</title>
<path fill="none" stroke="black" d="M96,-122.11C96,-141.34 96,-169 96,-169 96,-169 213.67,-169 213.67,-169"/>
<polygon fill="black" stroke="black" points="213.67,-172.5 223.67,-169 213.67,-165.5 213.67,-172.5"/>
</g>
</g>
</svg>
