<?xml version="1.0" encoding="UTF-8" standalone="no"?>
<!DOCTYPE svg PUBLIC "-//W3C//DTD SVG 1.1//EN"
 "http://www.w3.org/Graphics/SVG/1.1/DTD/svg11.dtd">
<!-- Generated by graphviz version 2.47.0 (20210316.0004)
 -->
<!-- Title: dependencies Pages: 1 -->
<svg width="504pt" height="284pt"
 viewBox="0.00 0.00 504.00 284.00" xmlns="http://www.w3.org/2000/svg" xmlns:xlink="http://www.w3.org/1999/xlink">
<g id="graph0" class="graph" transform="scale(1 1) rotate(0) translate(4 280)">
<title>dependencies</title>
<polygon fill="white" stroke="transparent" points="-4,4 -4,-280 500,-280 500,4 -4,4"/>
<text text-anchor="start" x="227.01" y="-42.4" font-family="Times-12" font-weight="bold" font-size="14.00">Legend</text>
<polygon fill="#ffffb3" stroke="transparent" points="14,-10 14,-30 34,-30 34,-10 14,-10"/>
<text text-anchor="start" x="37.63" y="-15.4" font-family="Times-12" font-size="14.00"> &#160;Declarations</text>
<polygon fill="#8dd3c7" stroke="transparent" points="127,-10 127,-30 147,-30 147,-10 127,-10"/>
<text text-anchor="start" x="150.73" y="-15.4" font-family="Times-12" font-size="14.00"> &#160;Module</text>
<polygon fill="#80b1d3" stroke="transparent" points="213,-10 213,-30 233,-30 233,-10 213,-10"/>
<text text-anchor="start" x="236.78" y="-15.4" font-family="Times-12" font-size="14.00"> &#160;Bootstrap</text>
<polygon fill="#fdb462" stroke="transparent" points="310,-10 310,-30 330,-30 330,-10 310,-10"/>
<text text-anchor="start" x="333.67" y="-15.4" font-family="Times-12" font-size="14.00"> &#160;Providers</text>
<polygon fill="#fb8072" stroke="transparent" points="406,-10 406,-30 426,-30 426,-10 406,-10"/>
<text text-anchor="start" x="429.73" y="-15.4" font-family="Times-12" font-size="14.00"> &#160;Exports</text>
<g id="clust1" class="cluster">
<title>cluster_OrderModule</title>
<polygon fill="none" stroke="black" stroke-dasharray="1,5" points="29.5,-70 29.5,-268 466.5,-268 466.5,-70 29.5,-70"/>
</g>
<g id="clust6" class="cluster">
<title>cluster_OrderModule_providers</title>
<polygon fill="none" stroke="black" points="147.5,-78 147.5,-130 458.5,-130 458.5,-78 147.5,-78"/>
</g>
<g id="clust3" class="cluster">
<title>cluster_OrderModule_imports</title>
<polygon fill="none" stroke="black" points="37.5,-78 37.5,-130 139.5,-130 139.5,-78 37.5,-78"/>
</g>
<g id="clust4" class="cluster">
<title>cluster_OrderModule_exports</title>
<polygon fill="none" stroke="black" points="163.5,-208 163.5,-260 273.5,-260 273.5,-208 163.5,-208"/>
</g>
<!-- UserModule -->
<g id="node1" class="node">
<title>UserModule</title>
<polygon fill="#8dd3c7" stroke="black" points="131.48,-122 128.48,-126 107.48,-126 104.48,-122 45.52,-122 45.52,-86 131.48,-86 131.48,-122"/>
<text text-anchor="middle" x="88.5" y="-99.8" font-family="Times,serif" font-size="14.00">UserModule</text>
</g>
<!-- OrderModule -->
<g id="node2" class="node">
<title>OrderModule</title>
<polygon fill="#8dd3c7" stroke="black" points="264.69,-187 261.69,-191 240.69,-191 237.69,-187 172.31,-187 172.31,-151 264.69,-151 264.69,-187"/>
<text text-anchor="middle" x="218.5" y="-164.8" font-family="Times,serif" font-size="14.00">OrderModule</text>
</g>
<!-- UserModule&#45;&gt;OrderModule -->
<g id="edge1" class="edge">
<title>UserModule&#45;&gt;OrderModule</title>
<path fill="none" stroke="black" d="M88.5,-122.11C88.5,-141.34 88.5,-169 88.5,-169 88.5,-169 162.3,-169 162.3,-169"/>
<polygon fill="black" stroke="black" points="162.3,-172.5 172.3,-169 162.3,-165.5 162.3,-172.5"/>
</g>
<!-- OrderService  -->
<g id="node3" class="node">
<title>OrderService </title>
<polygon fill="#fb8072" stroke="black" points="265.62,-252 171.38,-252 171.38,-216 265.62,-216 265.62,-252"/>
<text text-anchor="middle" x="218.5" y="-229.8" font-family="Times,serif" font-size="14.00">OrderService </text>
</g>
<!-- OrderModule&#45;&gt;OrderService  -->
<g id="edge2" class="edge">
<title>OrderModule&#45;&gt;OrderService </title>
<path fill="none" stroke="black" stroke-dasharray="5,2" d="M218.5,-187.11C218.5,-187.11 218.5,-205.99 218.5,-205.99"/>
<polygon fill="black" stroke="black" points="215,-205.99 218.5,-215.99 222,-205.99 215,-205.99"/>
</g>
<!-- OrderRepository -->
<g id="node4" class="node">
<title>OrderRepository</title>
<ellipse fill="#fdb462" stroke="black" cx="374.5" cy="-104" rx="75.86" ry="18"/>
<text text-anchor="middle" x="374.5" y="-99.8" font-family="Times,serif" font-size="14.00">OrderRepository</text>
</g>
<!-- OrderRepository&#45;&gt;OrderModule -->
<g id="edge3" class="edge">
<title>OrderRepository&#45;&gt;OrderModule</title>
<path fill="none" stroke="black" d="M374.5,-122.11C374.5,-141.34 374.5,-169 374.5,-169 374.5,-169 274.88,-169 274.88,-169"/>
<polygon fill="black" stroke="black" points="274.88,-165.5 264.88,-169 274.88,-172.5 274.88,-165.5"/>
</g>
<!-- OrderService -->
<g id="node5" class="node">
<title>OrderService</title>
<ellipse fill="#fdb462" stroke="black" cx="218.5" cy="-104" rx="62.52" ry="18"/>
<text text-anchor="middle" x="218.5" y="-99.8" font-family="Times,serif" font-size="14.00">OrderService</text>
</g>
<!-- OrderService&#45;&gt;OrderModule -->
<g id="edge4" class="edge">
<title>OrderService&#45;&gt;OrderModule</title>
<path fill="none" stroke="black" d="M218.5,-122.11C218.5,-122.11 218.5,-140.99 218.5,-140.99"/>
<polygon fill="black" stroke="black" points="215,-140.99 218.5,-150.99 222,-140.99 215,-140.99"/>
</g>
</g>
</svg>
